<?xml version="1.0" encoding="UTF-8" standalone="no"?>
<svg
   viewBox="0 0 70.000488 70.321558"
   preserveAspectRatio="xMidYMid"
   version="1.1"
   id="svg2"
   width="70.000488"
   height="70.321556"
   xmlns="http://www.w3.org/2000/svg"
   xmlns:svg="http://www.w3.org/2000/svg">
  <defs
     id="defs2" />
  <g
     transform="matrix(0.13907851,0,0,0.13907851,-0.55770483,-0.55909561)"
     fill="#ec729c"
     id="g1">
    <path
       fill="#ec729c"
       d="m 290.19,4.02 q 16.51,5.55 30.32,15.62 a 0.71,0.71 0 0 1 0.1,1.06 Q 299.99,42.81 279,64.58 q -7.98,8.27 -14.97,15.87 -2.62,2.85 -14.75,16.06 -13.27,14.45 -42.4,45.96 -16.91,18.29 -42.3,46.01 -27.87,30.41 -50.84,55 -19.78,21.17 -19.84,21.23 a 0.35,0.35 0 0 0 0.25,0.59 l 17.09,0.01 a 2.57,2.56 -68.4 0 0 1.87,-0.81 q 31.85,-33.57 60.9,-65.5 51.33,-56.45 98.77,-107.08 a 0.92,0.89 -67.4 0 1 0.65,-0.28 l 116.45,0.67 a 0.39,0.39 0 0 1 0.3,0.63 q -37.88,48.7 -87.56,113.3 -14.77,19.2 -28.85,36.93 -26.04,32.79 -29.1,36.74 c -26.68,34.45 -58.17,73.12 -85.29,107.82 a 0.4,0.4 0 0 0 0.32,0.65 h 38 a 1.15,1.13 19.5 0 0 0.88,-0.41 q 3.8,-4.56 7.78,-9.85 84.5,-112.18 94.8,-125.72 72.24,-94.96 108.57,-141.93 a 0.21,0.21 0 0 1 0.31,-0.01 q 17.5,18.42 26.95,27.92 30.47,30.62 35.5,35.79 c 15.74,16.2 27.31,33.46 32.22,55.77 q 3.66,16.66 2.2,34.97 c -0.64,7.99 -2.75,16.78 -5.11,23.89 q -6.1,18.34 -19.19,33.57 -4.85,5.65 -8.19,9.06 -50.41,51.45 -60.55,61.68 c -27.08,27.31 -55.89,58.13 -82.41,84.61 q -9.08,9.07 -12.26,11.48 -8.26,6.27 -19.16,10.56 -35.06,13.78 -72,8.35 c -4.01,-0.59 -11.41,-1.53 -16.76,-3.15 Q 192.22,499.19 176,488.77 a 0.27,0.27 0 0 1 -0.05,-0.41 L 367.08,282.61 a 0.31,0.31 0 0 0 -0.23,-0.52 h -19.62 a 0.58,0.57 21.4 0 0 -0.42,0.18 L 222.57,416.02 a 0.66,0.64 20.5 0 1 -0.48,0.21 H 105.96 a 0.27,0.27 0 0 1 -0.21,-0.43 q 18.29,-24.66 58.18,-78.32 c 17.95,-24.14 34.82,-46.05 52.8,-69.57 q 12.03,-15.73 22.55,-28.87 19.82,-24.76 22.99,-28.52 43.01,-51.11 73.35,-88.39 0.93,-1.15 1.69,-2.42 a 0.4,0.4 0 0 0 -0.34,-0.6 h -45.66 a 1.08,1.06 -68.5 0 0 -0.79,0.35 L 159.57,264.87 a 0.28,0.27 -68.9 0 0 0.2,0.46 h 24.28 a 0.37,0.37 0 0 1 0.3,0.59 L 87.61,395.94 a 0.32,0.32 0 0 1 -0.49,0.03 C 73.29,380.95 53.07,360.88 18.9,326.35 Q 9.96,317.32 4.01,306.02 V 200.97 q 4.48,-8.81 8.77,-13.45 c 16.72,-18.07 34.33,-35.38 51.5,-52.75 q 9.77,-9.87 37.58,-39.39 26.22,-27.83 53.12,-55.65 10.27,-10.62 16.01,-16.49 c 4.65,-4.75 9.38,-8.52 15.42,-11.67 q 8.71,-4.53 18.13,-7.55 z"
       id="path1" />
  </g>
</svg>
